<svg width="32" height="32" fill="none" xmlns="http://www.w3.org/2000/svg"><g clip-path="url('#clip0_3_485')" fill="#000"><path d="M15.967 2.882c4.265 0 4.766.02 6.451.095 1.559.07 2.402.33 2.966.551.747.292 1.28.634 1.837 1.192.558.557.906 1.09 1.192 1.837.215.564.481 1.407.55 2.966.077 1.685.096 2.186.096 6.45 0 4.265-.02 4.766-.095 6.451-.07 1.56-.33 2.402-.551 2.966-.292.747-.634 1.28-1.192 1.837a4.875 4.875 0 0 1-1.837 1.192c-.564.215-1.407.481-2.966.551-1.685.076-2.186.095-6.45.095-4.265 0-4.766-.019-6.451-.095-1.56-.07-2.402-.33-2.966-.551-.748-.292-1.28-.634-1.838-1.192a4.877 4.877 0 0 1-1.19-1.837c-.216-.564-.482-1.407-.552-2.966-.076-1.685-.095-2.186-.095-6.45 0-4.265.019-4.766.095-6.451.07-1.559.33-2.402.551-2.966.292-.747.634-1.28 1.191-1.837a4.877 4.877 0 0 1 1.838-1.192c.564-.215 1.407-.481 2.966-.55 1.685-.083 2.186-.096 6.45-.096Zm0-2.877c-4.334 0-4.879.02-6.583.095C7.685.176 6.526.45 5.512.842a7.78 7.78 0 0 0-2.826 1.844A7.918 7.918 0 0 0 .842 5.512C.449 6.526.176 7.685.1 9.39c-.076 1.698-.095 2.243-.095 6.577 0 4.335.02 4.88.095 6.584.076 1.698.349 2.858.742 3.878a7.781 7.781 0 0 0 1.844 2.826A7.918 7.918 0 0 0 5.512 31.1c1.014.393 2.173.666 3.878.741 1.704.076 2.243.096 6.584.096 4.34 0 4.879-.02 6.583-.096 1.699-.075 2.858-.348 3.879-.74a7.78 7.78 0 0 0 2.826-1.845 7.919 7.919 0 0 0 1.844-2.826c.392-1.014.665-2.173.741-3.878.076-1.705.095-2.243.095-6.584 0-4.34-.019-4.879-.095-6.584-.076-1.698-.349-2.857-.741-3.878a7.782 7.782 0 0 0-1.844-2.826A7.918 7.918 0 0 0 26.436.835C25.422.442 24.262.17 22.556.094c-1.71-.07-2.255-.089-6.59-.089Z"/><path d="M15.967 7.768a8.2 8.2 0 0 0-8.2 8.2 8.2 8.2 0 0 0 8.2 8.199c4.525 0 8.2-3.675 8.2-8.2 0-4.524-3.675-8.2-8.2-8.2Zm0 13.522a5.322 5.322 0 0 1-5.322-5.323 5.322 5.322 0 1 1 5.323 5.323ZM24.49 9.358a1.914 1.914 0 1 0 0-3.827 1.914 1.914 0 0 0 0 3.827Z"/></g><defs><clipPath id="clip0_3_485"><path fill="#fff" d="M0 0h32v32H0z"/></clipPath></defs></svg>